<?xml version="1.0" encoding="UTF-8" standalone="no"?>
<!-- Created with Inkscape (http://www.inkscape.org/) -->

<svg
   xmlns:dc="http://purl.org/dc/elements/1.1/"
   xmlns:cc="http://creativecommons.org/ns#"
   xmlns:rdf="http://www.w3.org/1999/02/22-rdf-syntax-ns#"
   xmlns:svg="http://www.w3.org/2000/svg"
   xmlns="http://www.w3.org/2000/svg"
   xmlns:sodipodi="http://sodipodi.sourceforge.net/DTD/sodipodi-0.dtd"
   xmlns:inkscape="http://www.inkscape.org/namespaces/inkscape"
   width="210mm"
   height="297mm"
   viewBox="0 0 744.09448819 1052.3622047"
   id="svg2"
   version="1.1"
   inkscape:version="0.91pre3 r13670"
   sodipodi:docname="Mneme logo.svg">
  <defs
     id="defs4" />
  <sodipodi:namedview
     id="base"
     pagecolor="#ffffff"
     bordercolor="#666666"
     borderopacity="1.0"
     inkscape:pageopacity="0.0"
     inkscape:pageshadow="2"
     inkscape:zoom="1.56"
     inkscape:cx="353.22006"
     inkscape:cy="696.01149"
     inkscape:document-units="px"
     inkscape:current-layer="layer1"
     showgrid="false"
     inkscape:window-width="1920"
     inkscape:window-height="1018"
     inkscape:window-x="-8"
     inkscape:window-y="-8"
     inkscape:window-maximized="1" />
  <metadata
     id="metadata7">
    <rdf:RDF>
      <cc:Work
         rdf:about="">
        <dc:format>image/svg+xml</dc:format>
        <dc:type
           rdf:resource="http://purl.org/dc/dcmitype/StillImage" />
        <dc:title></dc:title>
      </cc:Work>
    </rdf:RDF>
  </metadata>
  <g
     inkscape:label="Laag 1"
     inkscape:groupmode="layer"
     id="layer1">
    <path
       style="fill:#3c5ed9;fill-opacity:1;fill-rule:evenodd;stroke:none;stroke-width:0.63568956px;stroke-linecap:butt;stroke-linejoin:miter;stroke-opacity:1"
       d="m 335.22982,336.89087 a 49.682156,49.682156 0 0 0 -42.32031,49.08985 49.682156,49.682156 0 0 0 4.29883,20.1289 15,15 0 0 1 -0.0234,-0.68554 15,15 0 0 1 15,-15 15,15 0 0 1 15,15 15,15 0 0 1 -15,15 15,15 0 0 1 -6.90039,-1.69532 49.682156,49.682156 0 0 0 37.3086,16.9336 49.682156,49.682156 0 0 0 34.84961,-14.33203 15,15 0 0 1 -5.22071,0.94726 15,15 0 0 1 -15,-15 15,15 0 0 1 15,-15 15,15 0 0 1 15,15 15,15 0 0 1 -0.0254,0.50782 49.682156,49.682156 0 0 0 5.07813,-21.80469 49.682156,49.682156 0 0 0 -41.77539,-48.98828 15,15 0 0 1 7.27929,12.83984 15,15 0 0 1 -15,15 15,15 0 0 1 -15,-15 15,15 0 0 1 7.45117,-12.94141 z m -19.89843,21.30079 3.53515,3.53515 -3.53515,3.53516 -3.53516,-3.53516 3.53516,-3.53515 z m -4.70313,4.58007 3.53516,3.53516 -3.53516,3.53516 -3.53711,-3.53516 3.53711,-3.53516 z m 9.42578,0.0312 3.53516,3.53516 -3.53516,3.53516 -3.53711,-3.53516 3.53711,-3.53516 z m 48.67774,1.08594 3.53711,3.53516 -3.53711,3.53711 -3.53516,-3.53711 3.53516,-3.53516 z m 9.42578,0.0312 3.53516,3.53516 -3.53516,3.53515 -3.53516,-3.53515 3.53516,-3.53516 z m -4.70703,4.69141 3.53711,3.53515 -3.53711,3.53516 -3.53516,-3.53516 3.53516,-3.53515 z m -29.64063,9.24414 3.53516,3.53515 -3.53516,3.53516 -3.53515,-3.53516 3.53515,-3.53515 z m -4.70312,4.58008 3.53515,3.53515 -3.53515,3.53516 -3.53516,-3.53516 3.53516,-3.53515 z m 9.42578,0.0312 3.53516,3.53515 -3.53516,3.53516 -3.53516,-3.53516 3.53516,-3.53515 z m -4.70703,4.68945 3.53515,3.53516 -3.53515,3.5371 -3.53516,-3.5371 3.53516,-3.53516 z m -2.79492,25.22852 3.53711,3.5371 -3.53711,3.53516 -3.53516,-3.53516 3.53516,-3.5371 z m -4.70313,4.58007 3.53516,3.53711 -3.53516,3.53516 -3.53516,-3.53516 3.53516,-3.53711 z m 4.71875,4.72266 3.53516,3.53516 -3.53516,3.53515 -3.53516,-3.53515 3.53516,-3.53516 z"
       id="path3336"
       inkscape:connector-curvature="0" />
    <path
       style="fill:#2661e1;fill-opacity:1;stroke:none;stroke-width:2.41937733;stroke-miterlimit:4;stroke-dasharray:none;stroke-opacity:1"
       d="m 489.64896,237.50368 a 28.083447,52.573242 0 0 0 -28.08398,52.57227 28.083447,52.573242 0 0 0 8.53125,37.73633 9.2969589,19.408276 0 0 1 -1.33985,-10 9.2969589,19.408276 0 0 1 9.29688,-19.40821 9.2969589,19.408276 0 0 1 9.29687,19.40821 9.2969589,19.408276 0 0 1 -9.29687,19.4082 9.2969589,19.408276 0 0 1 -0.90821,-0.0937 28.083447,52.573242 0 0 0 12.50391,5.52344 28.083447,52.573242 0 0 0 28.08203,-52.57422 28.083447,52.573242 0 0 0 -8.63476,-37.8457 9.2969589,19.408276 0 0 1 1.16601,9.36718 9.2969589,19.408276 0 0 1 -9.29687,19.40821 9.2969589,19.408276 0 0 1 -9.29688,-19.40821 9.2969589,19.408276 0 0 1 9.29688,-19.4082 9.2969589,19.408276 0 0 1 0.24023,0.0254 28.083447,52.573242 0 0 0 -11.55664,-4.71094 z m -11.79492,29.04883 a 2.9032259,8.7096777 0 0 1 2.90234,8.70898 2.9032259,8.7096777 0 0 1 -2.90234,8.70899 2.9032259,8.7096777 0 0 1 -2.9043,-8.70899 2.9032259,8.7096777 0 0 1 2.9043,-8.70898 z m 10.96679,14.19336 a 2.9032259,8.7096777 0 0 1 2.9043,8.70898 2.9032259,8.7096777 0 0 1 -2.9043,8.70899 2.9032259,8.7096777 0 0 1 -2.90234,-8.70899 2.9032259,8.7096777 0 0 1 2.90234,-8.70898 z m 11.29102,14.51562 a 2.9032259,8.7096777 0 0 1 2.90234,8.70899 2.9032259,8.7096777 0 0 1 -2.90234,8.71094 2.9032259,8.7096777 0 0 1 -2.9043,-8.71094 2.9032259,8.7096777 0 0 1 2.9043,-8.70899 z"
       id="path4279"
       inkscape:connector-curvature="0"
       inkscape:export-xdpi="90"
       inkscape:export-ydpi="90" />
    <path
       style="fill:#286de3;fill-opacity:1;stroke:none;stroke-width:2;stroke-miterlimit:4;stroke-dasharray:none;stroke-opacity:1"
       d="m 161.1814,394.87596 a 61.290325,13.225807 60 0 0 -1.29688,0.39648 61.290325,13.225807 60 0 0 -1.45898,11.16211 26.500697,5.8503479 58.688287 0 1 0.63867,-0.75195 26.500697,5.8503479 58.688287 0 1 18.85352,19.84375 26.500697,5.8503479 58.688287 0 1 8.59375,25.49414 26.500697,5.8503479 58.688287 0 1 -18.85352,-19.8457 26.500697,5.8503479 58.688287 0 1 -3.19531,-5.63477 61.290325,13.225807 60 0 0 14.61328,29.42383 61.290325,13.225807 60 0 0 42.09766,46.46484 61.290325,13.225807 60 0 0 1.90234,-8.24023 26.500697,5.8503479 58.688287 0 1 -0.11328,0.0898 26.500697,5.8503479 58.688287 0 1 -18.85352,-19.8457 26.500697,5.8503479 58.688287 0 1 -8.59375,-25.49219 26.500697,5.8503479 58.688287 0 1 18.85352,19.84375 26.500697,5.8503479 58.688287 0 1 2.96484,5.20313 61.290325,13.225807 60 0 0 -15.34961,-31.25 61.290325,13.225807 60 0 0 -40.80273,-46.86133 z"
       id="path4330"
       inkscape:connector-curvature="0"
       inkscape:export-xdpi="90"
       inkscape:export-ydpi="90" />
    <path
       inkscape:connector-curvature="0"
       style="fill:#3c5ed9;fill-opacity:1;fill-rule:evenodd;stroke:none;stroke-width:0.63568956px;stroke-linecap:butt;stroke-linejoin:miter;stroke-opacity:1"
       d="m 205.01981,209.33708 a 49.682156,49.682156 0 0 0 -42.32031,49.08985 49.682156,49.682156 0 0 0 4.29883,20.1289 15,15 0 0 1 -0.0234,-0.68554 15,15 0 0 1 15,-15 15,15 0 0 1 15,15 15,15 0 0 1 -15,15 15,15 0 0 1 -6.90039,-1.69532 49.682156,49.682156 0 0 0 37.3086,16.9336 49.682156,49.682156 0 0 0 34.84961,-14.33203 15,15 0 0 1 -5.22071,0.94726 15,15 0 0 1 -15,-15 15,15 0 0 1 15,-15 15,15 0 0 1 15,15 15,15 0 0 1 -0.0254,0.50782 49.682156,49.682156 0 0 0 5.07813,-21.80469 49.682156,49.682156 0 0 0 -41.77539,-48.98828 15,15 0 0 1 7.27929,12.83984 15,15 0 0 1 -15,15 15,15 0 0 1 -15,-15 15,15 0 0 1 7.45117,-12.94141 z"
       id="path3336-7"
       inkscape:export-xdpi="90"
       inkscape:export-ydpi="90" />
    <path
       style="fill:none;fill-rule:evenodd;stroke:#ffffff;stroke-width:2;stroke-linecap:butt;stroke-linejoin:miter;stroke-miterlimit:4;stroke-dasharray:none;stroke-opacity:1"
       d="m 185.60791,256.41452 c 0,0 -6.59214,-8.32385 -0.16181,-15.85761 2.73338,4.62012 7.23313,5.46422 11.16504,-0.16181 7.10951,7.40384 -0.16181,15.69579 -0.16181,15.69579"
       id="path4257-0"
       inkscape:connector-curvature="0"
       sodipodi:nodetypes="cccc"
       inkscape:export-xdpi="90"
       inkscape:export-ydpi="90" />
    <path
       style="fill:none;fill-rule:evenodd;stroke:#ffffff;stroke-width:2;stroke-linecap:butt;stroke-linejoin:miter;stroke-miterlimit:4;stroke-dasharray:none;stroke-opacity:1"
       d="m 227.69653,256.41452 c 0,0 -6.59214,-8.32385 -0.16181,-15.85761 2.73338,4.62012 7.23313,5.46422 11.16504,-0.16181 7.10951,7.40384 -0.16181,15.69579 -0.16181,15.69579"
       id="path4257-9-3"
       inkscape:connector-curvature="0"
       sodipodi:nodetypes="cccc"
       inkscape:export-xdpi="90"
       inkscape:export-ydpi="90" />
    <path
       style="fill:none;fill-rule:evenodd;stroke:#ffffff;stroke-width:2;stroke-linecap:butt;stroke-linejoin:miter;stroke-miterlimit:4;stroke-dasharray:none;stroke-opacity:1"
       d="m 207.22178,290.18898 c 0,0 -5.79964,-7.69375 -0.16182,-17.96117 6.02682,10.12211 3.5369,5.46849 10.5178,17.79936 6.10977,-10.15786 -0.48543,-19.25566 -0.48543,-19.25566"
       id="path4274-4"
       inkscape:connector-curvature="0"
       sodipodi:nodetypes="cccc"
       inkscape:export-xdpi="90"
       inkscape:export-ydpi="90" />
    <path
       inkscape:connector-curvature="0"
       style="fill:#3c5ed9;fill-opacity:1;fill-rule:evenodd;stroke:none;stroke-width:0.63568956px;stroke-linecap:butt;stroke-linejoin:miter;stroke-opacity:1"
       d="m 479.8898,421.99896 a 49.682156,49.682156 0 0 0 -42.32031,49.08985 49.682156,49.682156 0 0 0 4.29883,20.1289 15,15 0 0 1 -0.0234,-0.68554 15,15 0 0 1 15,-15 15,15 0 0 1 15,15 15,15 0 0 1 -15,15 15,15 0 0 1 -6.90039,-1.69532 49.682156,49.682156 0 0 0 37.3086,16.9336 49.682156,49.682156 0 0 0 34.84961,-14.33203 15,15 0 0 1 -5.22071,0.94726 15,15 0 0 1 -15,-15 15,15 0 0 1 15,-15 15,15 0 0 1 15,15 15,15 0 0 1 -0.0254,0.50782 49.682156,49.682156 0 0 0 5.07813,-21.80469 49.682156,49.682156 0 0 0 -41.77539,-48.98828 15,15 0 0 1 7.27929,12.83984 15,15 0 0 1 -15,15 15,15 0 0 1 -15,-15 15,15 0 0 1 7.45117,-12.94141 z"
       id="path3336-6"
       inkscape:export-xdpi="90"
       inkscape:export-ydpi="90" />
  </g>
</svg>
